<?xml version="1.0" encoding="utf-8"?>
<svg viewBox="0 0 100 100" xmlns="http://www.w3.org/2000/svg">
  <path d="M 50 50 C 43.945 50 39.036 45.091 39.036 39.036 L 60.964 39.036 C 60.964 45.091 56.055 50 50 50 Z" style="stroke: rgb(0, 0, 0); stroke-width: 0px; fill: rgb(255, 255, 255); transform-origin: 50px 44.518px;" transform="matrix(-1, 0, 0, -1, 0.000001490116, 0.00000132674)"/>
  <path d="M 50 50 C 22.386 50 0 27.614 0 0 L 31.371 0 C 31.371 10.289 39.711 18.629 50 18.629 C 60.289 18.629 68.629 10.289 68.629 0 L 100 0 C 100 27.614 77.614 50 50 50 Z" style="stroke-width: 0px; stroke: rgb(255, 255, 255); fill: rgb(255, 0, 0); transform-origin: 50px 25px;" transform="matrix(-1, 0, 0, -1, 0.000001490116, 7.45058e-7)"/>
  <path d="M 50.001 50 C 39.712 50 31.372 41.66 31.372 31.371 L 39.037 31.371 C 39.037 37.426 43.946 42.335 50.001 42.335 C 56.056 42.335 60.965 37.426 60.965 31.371 L 68.63 31.371 C 68.63 41.66 60.29 50 50.001 50 Z" style="stroke: rgb(0, 0, 0); stroke-width: 0px; fill: rgb(48, 48, 48); transform-origin: 50.001px 40.6855px;" transform="matrix(-1, 0, 0, -1, -0.000006139249, 0.000001212522)"/>
  <path d="M 50 60.964 C 43.945 60.964 39.036 56.055 39.036 50 L 60.964 50 C 60.964 56.055 56.055 60.964 50 60.964 Z" style="stroke: rgb(0, 0, 0); stroke-width: 0px; fill: rgb(227, 227, 227);" transform="matrix(0.9999999999999999, 0, 0, 0.9999999999999999, 0, 0)"/>
  <path d="M 50 100 C 22.386 100 0 77.614 0 50 L 31.371 50 C 31.371 60.289 39.711 68.629 50 68.629 C 60.289 68.629 68.629 60.289 68.629 50 L 100 50 C 100 77.614 77.614 100 50 100 Z" style="stroke: rgb(0, 0, 0); stroke-width: 0px; fill: rgb(255, 255, 255);" transform="matrix(0.9999999999999999, 0, 0, 0.9999999999999999, 0, 0)"/>
  <path d="M 50 68.629 C 39.711 68.629 31.371 60.289 31.371 50 L 39.036 50 C 39.036 56.055 43.945 60.964 50 60.964 C 56.055 60.964 60.964 56.055 60.964 50 L 68.629 50 C 68.629 60.289 60.289 68.629 50 68.629 Z" style="stroke: rgb(0, 0, 0); stroke-width: 0px;" transform="matrix(0.9999999999999999, 0, 0, 0.9999999999999999, 0, 0)"/>
</svg>